<svg xmlns="http://www.w3.org/2000/svg" width="252.975" height="108.29" viewBox="0 0 252.9753 108.28951"><path d="M9.327 106.616c-6.008.212-10.218-6.097-9.165-11.708V27.636h15.876v55.272l41.54-41.744h-28.54l7.727-13.528c11.703.194 23.486-.389 35.138.29 7.36 1.2 9.739 11.636 4.089 16.292C57.856 62.82 39.286 81.04 20.973 99.488c-3.36 3.01-6.665 7.34-11.646 7.128zm101.718.144V51.49L69.59 93.236h28.595l-7.642 13.525c-11.73-.194-23.541.387-35.222-.29-7.11-1.108-9.682-10.967-4.568-15.798C69.346 71.37 88.67 52.718 107.525 33.657c3.56-3.959 9.028-7.826 14.433-4.931 6.287 3.064 5.195 10.778 5.189 16.554v61.479h-16.102zm30.85 0L141.756 0l17.032 8.655v98.105h-16.891zm70.163-64.652c-12.751-.185-24.179 10.833-24.508 23.572-1.323 13.583 10.344 27.009 24.17 26.608 13.868.791 25.94-12.455 24.787-26.116-.12-13.05-11.376-24.14-24.45-24.064zm0 66.18c-16.485.115-32.312-10.68-38.18-26.082-6.722-16.342-1.158-36.515 12.92-47.194 14.896-12.206 38.465-11.49 52.512 1.734 13.973 11.945 17.746 33.688 8.919 49.754-6.961 13.136-21.273 21.84-36.171 21.789z" fill="#009fda" fill-rule="evenodd"/></svg>